<?xml version="1.0" encoding="UTF-8"?>
<svg version="1.1" xmlns="http://www.w3.org/2000/svg" width="531" height="531">
<path d="M0 0 C175.23 0 350.46 0 531 0 C531 175.23 531 350.46 531 531 C355.77 531 180.54 531 0 531 C0 355.77 0 180.54 0 0 Z " fill="#FEFEFE" transform="translate(0,0)"/>
<path d="M0 0 C1.03478989 -0.00250763 1.03478989 -0.00250763 2.09048462 -0.00506592 C17.56074312 -0.00724498 32.9935034 0.78989877 48.4375 1.625 C50.23374817 1.71968567 50.23374817 1.71968567 52.06628418 1.81628418 C64.3878687 2.47477962 76.57340564 3.17622553 88.75 5.25 C88.98211924 16.11991994 88.25115381 26.8444312 87.4375 37.67578125 C87.30256708 39.51805158 87.16805287 41.36035261 87.03393555 43.2026825 C86.68299253 48.00819706 86.32643274 52.81327826 85.96862793 57.61828613 C85.60323953 62.53889073 85.24326645 67.45989129 84.8828125 72.38085938 C84.1771194 82.00429919 83.46497987 91.62724569 82.75 101.25 C72.85 101.25 62.95 101.25 52.75 101.25 C48.63098108 71.04386128 48.63098108 71.04386128 47.5 59.8125 C47.42023926 59.03487305 47.34047852 58.25724609 47.25830078 57.45605469 C46.83358077 53.03229656 46.6797398 48.69395783 46.75 44.25 C45.55890625 44.07984375 44.3678125 43.9096875 43.140625 43.734375 C41.42708333 43.48958333 39.71354167 43.24479167 38 43 C37.12134277 42.87447754 36.24268555 42.74895508 35.33740234 42.61962891 C28.73580933 41.67654419 28.73580933 41.67654419 22.13421631 40.73345947 C20.91139954 40.55877136 19.68858276 40.38408325 18.42871094 40.20410156 C17.20490723 40.02927246 15.98110352 39.85444336 14.72021484 39.67431641 C13.4873877 39.49819824 12.25456055 39.32208008 10.984375 39.140625 C6.57291667 38.51041667 2.16145833 37.88020833 -2.25 37.25 C-2.24539104 38.47306886 -2.24078207 39.69613771 -2.23603344 40.95626926 C-2.12756277 70.04005608 -2.04520692 99.12382392 -1.99467335 128.20776493 C-1.9884204 131.7935396 -1.98194873 135.37931385 -1.9753418 138.96508789 C-1.97403024 139.67890078 -1.97271869 140.39271367 -1.9713674 141.12815725 C-1.94965674 152.66084013 -1.9102594 164.19339741 -1.86423602 175.72600598 C-1.8173501 187.57425059 -1.78967908 199.42242977 -1.77955753 211.27076334 C-1.77333406 217.91961969 -1.75783477 224.56824774 -1.72134972 231.21702766 C-1.68724172 237.48380302 -1.67697704 243.75017898 -1.68446159 250.01703835 C-1.68309367 252.30865402 -1.67325033 254.600284 -1.65397263 256.891819 C-1.51928584 273.73791345 -3.64595307 285.04190615 -11.25 300.25 C19.44 300.58 50.13 300.91 81.75 301.25 C81.75 310.82 81.75 320.39 81.75 330.25 C74.66033451 332.37689965 68.4160348 333.91190901 61.1875 334.75 C59.69657837 334.93272461 59.69657837 334.93272461 58.17553711 335.11914062 C56.08068863 335.37478982 53.98537996 335.62669364 51.88964844 335.875 C48.86464416 336.23630689 45.84242711 336.61534902 42.8203125 337 C-0.77782545 342.49304415 -0.77782545 342.49304415 -22.125 342.5625 C-23.10984375 342.56789795 -24.0946875 342.5732959 -25.109375 342.57885742 C-45.90680211 342.37181932 -64.29335158 332.33991842 -79.25 318.25 C-85.85002318 311.17508529 -91.35306396 303.57586281 -96.25 295.25 C-96.60980957 294.65171387 -96.96961914 294.05342773 -97.34033203 293.43701172 C-102.79900172 284.33159334 -107.06852258 275.42629363 -110.25 265.25 C-110.69585814 263.86694341 -111.14250175 262.48413985 -111.58984375 261.1015625 C-114.70688526 251.36248 -117.30716159 241.81070167 -118.8125 231.6875 C-118.93818359 230.89537109 -119.06386719 230.10324219 -119.19335938 229.28710938 C-124.38272796 194.8090532 -123.30903353 156.67916097 -118.25 122.25 C-118.09727631 121.19966583 -118.09727631 121.19966583 -117.94146729 120.12811279 C-110.60035393 69.9562729 -110.60035393 69.9562729 -99.25 57.25 C-98.44691406 56.32574219 -97.64382812 55.40148437 -96.81640625 54.44921875 C-91.88920834 48.88357985 -86.67315328 43.58655108 -81.4375 38.3125 C-80.64738525 37.51525513 -80.64738525 37.51525513 -79.84130859 36.7019043 C-78.32968883 35.19672 -76.7980991 33.71758801 -75.25 32.25 C-74.46810303 31.49565674 -74.46810303 31.49565674 -73.67041016 30.72607422 C-69.87447818 27.27057389 -69.87447818 27.27057389 -67.234375 27.18359375 C-62.56784293 29.69139543 -58.47684718 33.07986462 -54.25 36.25 C-55.55329624 46.90572094 -56.94712757 57.54611442 -58.42724609 68.17871094 C-58.75168192 70.51209659 -59.07318099 72.84587514 -59.39453125 75.1796875 C-60.29133387 81.65343863 -61.20272409 88.11064364 -62.34375 94.546875 C-64.41261246 106.77140285 -64.52799761 119.19463102 -64.8125 131.5625 C-64.83268188 132.43173096 -64.85286377 133.30096191 -64.87365723 134.1965332 C-66.64913634 191.73886597 -66.64913634 191.73886597 -57.25 248.25 C-56.95480469 249.3740625 -56.65960938 250.498125 -56.35546875 251.65625 C-52.42163251 265.02051559 -44.28149048 279.31766102 -33.63134766 288.37451172 C-32.99879059 288.91341034 -32.36623352 289.45230896 -31.71450806 290.00753784 C-31.2312204 290.41755035 -30.74793274 290.82756287 -30.25 291.25 C-30.25460896 289.98239114 -30.25921793 288.71478228 -30.26396656 287.40876102 C-30.37246626 257.25744809 -30.45480749 227.10618587 -30.50532665 196.9547253 C-30.51157951 193.23633671 -30.51805119 189.51794853 -30.5246582 185.79956055 C-30.52596976 185.05935675 -30.52728131 184.31915295 -30.5286326 183.55651873 C-30.55033595 171.60163177 -30.58972918 159.64686614 -30.63576398 147.69205094 C-30.68267039 135.40761162 -30.71032521 123.12323544 -30.72044247 110.83871025 C-30.72727241 103.27026231 -30.74877229 95.7021574 -30.78958233 88.13381516 C-30.8193614 82.31142194 -30.82223864 76.48924412 -30.81553841 70.66679001 C-30.81690488 68.2921622 -30.82672834 65.91752043 -30.84602737 63.54297066 C-30.97497354 46.84715831 -28.92844221 33.56478066 -22.25 18.25 C-21.77744689 16.95967976 -21.3215533 15.66283472 -20.8984375 14.35546875 C-20.68703125 13.71029297 -20.475625 13.06511719 -20.2578125 12.40039062 C-20.04898438 11.75263672 -19.84015625 11.10488281 -19.625 10.4375 C-17.36880165 3.48760331 -17.36880165 3.48760331 -16.25 1.25 C-11.0213589 -0.49288037 -5.47257681 0.00696741 0 0 Z " fill="#0C0C0C" transform="translate(190.25,96.75)"/>
<path d="M0 0 C12.72371992 -0.81654338 12.72371992 -0.81654338 16.81933594 2.39404297 C22.23773792 10.384973 16.63134904 26.78259704 15.23535156 35.91943359 C14.81605878 38.66550604 14.40319005 41.4124897 13.99121094 44.15966797 C13.72595746 45.91493249 13.46034557 47.67014289 13.19433594 49.42529297 C13.0713916 50.24195435 12.94844727 51.05861572 12.82177734 51.90002441 C12.29087609 55.36204978 11.70675799 58.75632577 10.81933594 62.14404297 C11.66753906 61.47759766 12.51574219 60.81115234 13.38964844 60.12451172 C28.37402344 48.35107422 28.37402344 48.35107422 30.10327148 46.99243164 C31.24803326 46.09294106 32.39272719 45.19336412 33.53735352 44.29370117 C36.61541755 41.87457116 39.69493101 39.4573141 42.77636719 37.04248047 C43.74413086 36.28354492 43.74413086 36.28354492 44.73144531 35.50927734 C45.97581407 34.53347738 47.22059037 33.55819685 48.46582031 32.58349609 C51.23397367 30.46940837 51.23397367 30.46940837 53.81933594 28.14404297 C58.0143765 28.10149692 61.70000579 28.32723448 65.13183594 30.83154297 C65.68871094 31.59466797 66.24558594 32.35779297 66.81933594 33.14404297 C67.52058594 34.09279297 68.22183594 35.04154297 68.94433594 36.01904297 C70.78951507 39.09434152 71.72758114 41.74033682 72.81933594 45.14404297 C74.14736848 47.99685362 75.50662551 50.83111441 76.89355469 53.65576172 C77.81933594 56.14404297 77.81933594 56.14404297 76.81933594 59.14404297 C74.46983053 60.39287918 72.20753412 61.4466101 69.75683594 62.45654297 C69.04309814 62.75995605 68.32936035 63.06336914 67.59399414 63.37597656 C61.94996132 65.74739814 56.23197941 67.90410147 50.48461914 70.01000977 C45.66556982 71.78682931 41.01281567 73.79748431 36.36621094 75.97998047 C32.87067529 77.57763326 29.30378587 78.96706224 25.71777344 80.34716797 C23.84464737 80.99262507 23.84464737 80.99262507 22.81933594 82.14404297 C23.86105957 82.55916138 23.86105957 82.55916138 24.92382812 82.98266602 C28.13937877 84.26467073 31.35435878 85.54810079 34.56933594 86.83154297 C35.66117187 87.26660156 36.75300781 87.70166016 37.87792969 88.14990234 C47.74271832 92.08998064 57.55286003 96.1539105 67.31933594 100.33154297 C68.46402344 100.82009766 69.60871094 101.30865234 70.78808594 101.81201172 C73.17385663 102.86039807 75.50567573 103.94751771 77.81933594 105.14404297 C77.19991324 109.96803185 75.16119384 113.76807889 72.94433594 118.01904297 C72.23661564 119.39041307 71.53086678 120.76280247 70.82714844 122.13623047 C70.48409668 122.80162842 70.14104492 123.46702637 69.78759766 124.15258789 C68.84397127 126.09337468 68.05375626 128.05145432 67.27246094 130.06201172 C65.81933594 133.14404297 65.81933594 133.14404297 62.44433594 134.58154297 C61.24808594 134.76716797 60.05183594 134.95279297 58.81933594 135.14404297 C58.07425781 135.27681641 57.32917969 135.40958984 56.56152344 135.54638672 C52.19033457 134.90502995 49.5895831 132.10247153 46.31933594 129.26904297 C44.88690853 128.06583015 43.4532998 126.8640224 42.01855469 125.66357422 C41.30876465 125.06496582 40.59897461 124.46635742 39.86767578 123.84960938 C37.01405692 121.47352101 34.08720341 119.20399153 31.13183594 116.95654297 C30.10316406 116.17150391 29.07449219 115.38646484 28.01464844 114.57763672 C27.4993457 114.18560059 26.98404297 113.79356445 26.453125 113.38964844 C23.46296924 111.10994511 20.48591817 108.81318499 17.50683594 106.51904297 C16.40662755 105.67262117 15.30637222 104.82626038 14.20605469 103.97998047 C13.4184375 103.37412109 12.63082031 102.76826172 11.81933594 102.14404297 C12.42584837 114.49823461 14.15683297 126.6569614 15.88183594 138.89404297 C16.30441088 141.91772663 16.72568036 144.94158569 17.14561462 147.96563721 C17.40535152 149.83335914 17.66681396 151.70084211 17.93019104 153.5680542 C18.04708786 154.40362854 18.16398468 155.23920288 18.28442383 156.10009766 C18.38799698 156.83508484 18.49157013 157.57007202 18.59828186 158.32733154 C18.81933594 160.14404297 18.81933594 160.14404297 18.81933594 162.14404297 C15.34081425 162.48433805 11.86143684 162.81498167 8.38183594 163.14404297 C6.92100586 163.28712891 6.92100586 163.28712891 5.43066406 163.43310547 C-10.64823177 164.93882147 -10.64823177 164.93882147 -14.59082031 162.89404297 C-15.13609375 162.31654297 -15.68136719 161.73904297 -16.24316406 161.14404297 C-16.81164062 160.58716797 -17.38011719 160.03029297 -17.96582031 159.45654297 C-20.91953998 153.83402836 -18.87159876 145.91974439 -17.93847656 139.85888672 C-17.81004364 138.99896622 -17.68161072 138.13904572 -17.54928589 137.25306702 C-17.27805114 135.44668377 -17.00392945 133.64073185 -16.72705078 131.83520508 C-16.30651002 129.08707113 -15.89723251 126.33742672 -15.48925781 123.58740234 C-15.22300033 121.82362926 -14.95609504 120.05995381 -14.68847656 118.29638672 C-14.50709641 117.07579811 -14.50709641 117.07579811 -14.322052 115.83055115 C-13.59432161 111.13274082 -12.58592251 106.68670188 -11.18066406 102.14404297 C-17.44377756 106.78611532 -23.65385482 111.4897876 -29.80444336 116.2800293 C-31.35170094 117.48475798 -32.90136359 118.68640391 -34.45336914 119.88500977 C-37.99656242 122.6271983 -41.50123529 125.3888094 -44.90722656 128.30029297 C-52.76954861 134.92285216 -52.76954861 134.92285216 -56.87207031 135.56591797 C-59.16772043 135.34482807 -61.02481354 134.94198764 -63.18066406 134.14404297 C-64.17066406 133.81404297 -65.16066406 133.48404297 -66.18066406 133.14404297 C-67.62280273 130.78320312 -67.62280273 130.78320312 -69.09863281 127.68310547 C-69.63037109 126.57193359 -70.16210938 125.46076172 -70.70996094 124.31591797 C-71.25716797 123.14544922 -71.804375 121.97498047 -72.36816406 120.76904297 C-72.92697266 119.60630859 -73.48578125 118.44357422 -74.06152344 117.24560547 C-78.18066406 108.5546714 -78.18066406 108.5546714 -78.18066406 105.14404297 C-65.14858194 99.30207512 -51.97899804 93.78274067 -38.80566406 88.26904297 C-37.37595464 87.67013698 -35.94626703 87.07117888 -34.51660156 86.47216797 C-31.07153911 85.02886211 -27.62618656 83.58625032 -24.18066406 82.14404297 C-32.06820262 78.00502628 -40.18561529 74.56233581 -48.43066406 71.20654297 C-52.11349819 69.69957547 -55.79506562 68.1900555 -59.47167969 66.66796875 C-62.03331738 65.60824262 -64.60582236 64.58168412 -67.18652344 63.56933594 C-68.47118238 63.05165086 -69.7556928 62.53359705 -71.04003906 62.01513672 C-72.1947168 61.55937256 -73.34939453 61.1036084 -74.5390625 60.6340332 C-77.18066406 59.14404297 -77.18066406 59.14404297 -78.20483398 57.32641602 C-78.14677588 52.08417929 -74.94194072 47.16119392 -72.74316406 42.51904297 C-71.97842773 40.78267578 -71.97842773 40.78267578 -71.19824219 39.01123047 C-67.3645921 30.8783817 -67.3645921 30.8783817 -64.16064453 28.89111328 C-60.41458785 27.8399284 -56.76623996 27.69733117 -53.18066406 29.14404297 C-50.53712701 30.95915851 -48.11755148 33.00048036 -45.68066406 35.08154297 C-44.25344177 36.2717412 -42.82504029 37.46052672 -41.39550781 38.64794922 C-40.6863623 39.23979004 -39.9772168 39.83163086 -39.24658203 40.44140625 C-36.29842405 42.87114552 -33.2825736 45.2050817 -30.24316406 47.51904297 C-25.78102868 50.91691749 -21.3608953 54.35800849 -16.98535156 57.86669922 C-15.10006081 59.33200009 -15.10006081 59.33200009 -12.18066406 60.14404297 C-12.35718506 58.88970459 -12.53370605 57.63536621 -12.71557617 56.34301758 C-13.37888644 51.61915703 -14.03504062 46.8943239 -14.68920898 42.16918945 C-14.97148498 40.13734855 -15.25561444 38.10576414 -15.54174805 36.07446289 C-17.17950158 24.43809493 -18.6534513 12.88987992 -19.18066406 1.14404297 C-14.29983297 0.80949396 -9.41926588 0.51553594 -4.53320312 0.26855469 C-3.02160181 0.18855088 -1.51042542 0.0997706 0 0 Z " fill="#0D0D0D" transform="translate(386.1806640625,58.85595703125)"/>
</svg>
